<svg xmlns="http://www.w3.org/2000/svg" width="900" height="700" viewBox="0 0 900 700" role="img" aria-label="Training Floor">
  <defs>
    <linearGradient id="bg5" x1="0" y1="0" x2="1" y2="1">
      <stop offset="0" stop-color="#48760c"/><stop offset="0.55" stop-color="#7ec40c"/><stop offset="1" stop-color="#48760c"/>
    </linearGradient>
    <radialGradient id="glow5" cx="0.7" cy="0.3" r="0.7">
      <stop offset="0" stop-color="#d2ff85" stop-opacity="0.75"/><stop offset="1" stop-color="#d2ff85" stop-opacity="0"/>
    </radialGradient>
    <radialGradient id="vig5" cx="0.5" cy="0.5" r="0.95">
      <stop offset="0.55" stop-color="#000" stop-opacity="0"/><stop offset="1" stop-color="#1a0c05" stop-opacity="0.5"/>
    </radialGradient>
    <linearGradient id="fade5" x1="0" y1="0" x2="0" y2="1"><stop offset="0" stop-color="#170a04" stop-opacity="0"/><stop offset="1" stop-color="#170a04" stop-opacity="0.78"/></linearGradient>
  </defs>
  <rect width="900" height="700" fill="url(#bg5)"/>
  <rect width="900" height="700" fill="url(#glow5)"/>
  <path d="M495.00000000000006 0 L900 489.99999999999994 V0 Z" fill="#ffffff" opacity="0.14"/>
  <g stroke="#ffffff" stroke-opacity="0.4" stroke-width="5" fill="none">
    <path d="M126.00000000000001 462 V140 H450 V462"/>
    <path d="M450 140 H774 V462"/>
    <line x1="216" y1="140" x2="216" y2="294"/>
    <line x1="216" y1="294" x2="360" y2="294" stroke="#ffc0a3" stroke-opacity="0.8"/>
  </g>
  <g transform="translate(612,420) scale(1)" stroke="#ffc0a3" stroke-width="9" stroke-linecap="round" fill="none" opacity="0.85">
    <line x1="-96" y1="0" x2="96" y2="0"/>
    <rect x="-92" y="-34" width="22" height="68" rx="8" fill="#ffc0a3" stroke="none"/>
    <rect x="70" y="-34" width="22" height="68" rx="8" fill="#ffc0a3" stroke="none"/>
    <rect x="-116" y="-22" width="14" height="44" rx="6" fill="#ffc0a3" stroke="none" opacity="0.7"/>
    <rect x="102" y="-22" width="14" height="44" rx="6" fill="#ffc0a3" stroke="none" opacity="0.7"/>
  </g>
  <g stroke="#ffffff" stroke-opacity="0.28" stroke-width="3" stroke-linecap="round">
    <line x1="-45" y1="140" x2="216" y2="98.00000000000001"/>
    <line x1="-45" y1="238.00000000000003" x2="144" y2="210"/>
    <line x1="684" y1="574" x2="936" y2="532"/>
    <line x1="756" y1="644" x2="936" y2="616"/>
  </g>
  <rect width="900" height="700" fill="url(#vig5)"/>
  <g>
    <rect x="0" y="489.99999999999994" width="900" height="210" fill="url(#fade5)"/>
    <rect x="36" y="600" width="34" height="5" fill="#b6f93f"/>
    <text x="36" y="658" font-family="Arial, sans-serif" font-size="57" font-weight="800" letter-spacing="1.5" fill="#fff">TRAINING FLOOR</text>
    <text x="36" y="684" font-family="Arial, sans-serif" font-size="22" font-weight="700" letter-spacing="3" fill="#d2ff85">10,000 SQ FT</text>
  </g>
</svg>
