<svg xmlns="http://www.w3.org/2000/svg" width="800" height="600" viewBox="0 0 800 600" role="img" aria-label="Chicken Tikka">
  <defs>
    <linearGradient id="bg5" x1="0" y1="0" x2="1" y2="1">
      <stop offset="0" stop-color="#8a3d10"/><stop offset="0.55" stop-color="#c96a12"/><stop offset="1" stop-color="#8a3d10"/>
    </linearGradient>
    <radialGradient id="glow5" cx="0.68" cy="0.3" r="0.75">
      <stop offset="0" stop-color="#f2cd8f" stop-opacity="0.55"/><stop offset="1" stop-color="#f2cd8f" stop-opacity="0"/>
    </radialGradient>
    <radialGradient id="vig5" cx="0.5" cy="0.5" r="0.9">
      <stop offset="0.6" stop-color="#000" stop-opacity="0"/><stop offset="1" stop-color="#241205" stop-opacity="0.45"/>
    </radialGradient>
    <filter id="grain5"><feTurbulence type="fractalNoise" baseFrequency="0.8" numOctaves="2" result="n"/><feColorMatrix in="n" type="saturate" values="0"/><feComponentTransfer><feFuncA type="linear" slope="0.06"/></feComponentTransfer><feComposite operator="over" in2="SourceGraphic"/></filter>
  </defs><defs><linearGradient id="fade" x1="0" y1="0" x2="0" y2="1"><stop offset="0" stop-color="#241205" stop-opacity="0"/><stop offset="1" stop-color="#241205" stop-opacity="0.72"/></linearGradient></defs>
  <rect width="800" height="600" fill="url(#bg5)"/>
  <rect width="800" height="600" fill="url(#glow5)"/>
  <circle cx="656" cy="342" r="3.5" fill="#f2cd8f" opacity="0.35"/><circle cx="365" cy="104" r="1.5" fill="#f2cd8f" opacity="0.35"/><circle cx="237" cy="61" r="2.5" fill="#f2cd8f" opacity="0.35"/><circle cx="224" cy="119" r="2.5" fill="#f2cd8f" opacity="0.35"/><circle cx="115" cy="194" r="1.5" fill="#f2cd8f" opacity="0.35"/><circle cx="550" cy="14" r="1.5" fill="#f2cd8f" opacity="0.35"/><circle cx="685" cy="295" r="2.0" fill="#f2cd8f" opacity="0.35"/><circle cx="256" cy="288" r="2.5" fill="#f2cd8f" opacity="0.35"/><circle cx="198" cy="11" r="2.5" fill="#f2cd8f" opacity="0.35"/><circle cx="691" cy="187" r="2.5" fill="#f2cd8f" opacity="0.35"/><circle cx="678" cy="140" r="2.0" fill="#f2cd8f" opacity="0.35"/><circle cx="128" cy="342" r="3.5" fill="#f2cd8f" opacity="0.35"/><circle cx="154" cy="166" r="1.5" fill="#f2cd8f" opacity="0.35"/><circle cx="397" cy="86" r="2.5" fill="#f2cd8f" opacity="0.35"/>
  <g>
    <circle cx="496" cy="240" r="156" fill="#fff" opacity="0.14"/>
    <circle cx="496" cy="240" r="127.91999999999999" fill="none" stroke="#f2cd8f" stroke-opacity="0.6" stroke-width="2"/>
    <circle cx="496" cy="240" r="90.47999999999999" fill="#c96a12" opacity="0.85"/>
    <circle cx="496" cy="240" r="90.47999999999999" fill="none" stroke="#fff" stroke-opacity="0.25" stroke-width="3"/>
    <path d="M449.2 232.2 q 46.8 -54.599999999999994 93.6 0 q -46.8 54.599999999999994 -93.6 0 Z" fill="#f2cd8f" opacity="0.85"/>
    <circle cx="477.28" cy="274.32" r="9.36" fill="#fff" opacity="0.7"/>
    <circle cx="527.2" cy="268.08" r="7.02" fill="#fff" opacity="0.55"/>
  </g>
  <g stroke="#fff" stroke-opacity="0.5" stroke-width="3" fill="none" stroke-linecap="round">
    <path d="M474 78 c -8 -18, 8 -26, 0 -44"/>
    <path d="M496 72 c -8 -20, 8 -28, 0 -48"/>
    <path d="M518 78 c -8 -18, 8 -26, 0 -44"/>
  </g>
  <g fill="#9bb78f" opacity="0.5">
    <path d="M96 372 q 22.5 -37.5 0 -72.5 q -22.5 35 0 72.5 Z"/>
    <path d="M121 379.5 q 32.5 -25 20 -65 q -32.5 25 -20 65 Z"/>
  </g>
  <rect width="800" height="600" fill="url(#vig5)"/>
  <g>
    <rect x="0" y="432" width="800" height="168.00000000000003" fill="url(#fade)"/>
    <rect x="36" y="508" width="26" height="3" rx="1.5" fill="#f2cd8f"/>
    <text x="36" y="556" font-family="Georgia, serif" font-size="45" font-weight="600" fill="#fff8ef">Chicken Tikka</text>
    <text x="36" y="582" font-family="Arial, sans-serif" font-size="19" letter-spacing="2.5" fill="#f2cd8f" opacity="0.9">TANDOOR-FIRED</text>
  </g>
</svg>
