<svg xmlns="http://www.w3.org/2000/svg" width="900" height="700" viewBox="0 0 900 700" role="img" aria-label="Consultation">
  <defs>
    <linearGradient id="bg33" x1="0" y1="0" x2="0.8" y2="1">
      <stop offset="0" stop-color="#edfbf6"/><stop offset="0.6" stop-color="#d2f5e9"/><stop offset="1" stop-color="#edfbf6"/>
    </linearGradient>
    <radialGradient id="glow33" cx="0.7" cy="0.25" r="0.7">
      <stop offset="0" stop-color="#ffffff" stop-opacity="0.9"/><stop offset="1" stop-color="#ffffff" stop-opacity="0"/>
    </radialGradient>
    <linearGradient id="wave33" x1="0" y1="0" x2="1" y2="0">
      <stop offset="0" stop-color="#23a283" stop-opacity="0.16"/><stop offset="1" stop-color="#459ace" stop-opacity="0.2"/>
    </linearGradient>
    <linearGradient id="fade33" x1="0" y1="0" x2="0" y2="1"><stop offset="0" stop-color="#156857" stop-opacity="0"/><stop offset="1" stop-color="#156857" stop-opacity="0.78"/></linearGradient>
  </defs>
  <rect width="900" height="700" fill="url(#bg33)"/>
  <rect width="900" height="700" fill="url(#glow33)"/>
  <g>
    <path d="M0 434 C 225 350, 360 518, 612 448 S 900 364, 900 364 V700 H0 Z" fill="url(#wave33)"/>
    <path d="M0 532 C 270 448, 450 616, 702 532 S 900 476.00000000000006, 900 476.00000000000006 V700 H0 Z" fill="url(#wave33)" opacity="0.8"/>
  </g>
  <g opacity="0.5">
    <rect x="108" y="168" width="270" height="238.00000000000003" rx="18" fill="#ffffff" opacity="0.7"/>
    <rect x="432" y="112" width="198" height="182" rx="16" fill="#ffffff" opacity="0.5"/>
    <rect x="144" y="210" width="198" height="6" rx="3" fill="#23a283" opacity="0.4"/>
    <rect x="144" y="252" width="144" height="6" rx="3" fill="#23a283" opacity="0.25"/>
  </g>
  <circle cx="274" cy="386" r="16" fill="none" stroke="#23a283" stroke-opacity="0.25" stroke-width="1.5"/><circle cx="396" cy="276" r="12" fill="none" stroke="#23a283" stroke-opacity="0.25" stroke-width="1.5"/><circle cx="216" cy="286" r="4" fill="none" stroke="#23a283" stroke-opacity="0.25" stroke-width="1.5"/><circle cx="698" cy="134" r="12" fill="none" stroke="#23a283" stroke-opacity="0.25" stroke-width="1.5"/><circle cx="230" cy="151" r="4" fill="none" stroke="#23a283" stroke-opacity="0.25" stroke-width="1.5"/><circle cx="482" cy="20" r="12" fill="none" stroke="#23a283" stroke-opacity="0.25" stroke-width="1.5"/><circle cx="626" cy="192" r="12" fill="none" stroke="#23a283" stroke-opacity="0.25" stroke-width="1.5"/>
  <path d="M720 127 q 2.6 10.4 13 13 q -10.4 2.6 -13 13 q -2.6 -10.4 -13 -13 q 10.4 -2.6 13 -13 Z" fill="#459ace" opacity="0.7"/>
  <g>
    <rect x="0" y="489.99999999999994" width="900" height="210" fill="url(#fade33)"/>
    <rect x="36" y="608" width="26" height="3" rx="1.5" fill="#71d8ba"/>
    <text x="36" y="656" font-family="Georgia, serif" font-size="48" font-weight="600" fill="#ffffff">Consultation</text>
    <text x="36" y="682" font-family="Arial, sans-serif" font-size="21" letter-spacing="3" fill="#d2f5e9">HONEST ADVICE</text>
  </g>
</svg>
