<svg xmlns="http://www.w3.org/2000/svg" width="900" height="700" viewBox="0 0 900 700" role="img" aria-label="Reception">
  <defs>
    <linearGradient id="bg40" x1="0" y1="0" x2="0.8" y2="1">
      <stop offset="0" stop-color="#eef6fb"/><stop offset="0.6" stop-color="#d8ebf6"/><stop offset="1" stop-color="#eef6fb"/>
    </linearGradient>
    <radialGradient id="glow40" cx="0.7" cy="0.25" r="0.7">
      <stop offset="0" stop-color="#ffffff" stop-opacity="0.9"/><stop offset="1" stop-color="#ffffff" stop-opacity="0"/>
    </radialGradient>
    <linearGradient id="wave40" x1="0" y1="0" x2="1" y2="0">
      <stop offset="0" stop-color="#2a7fb6" stop-opacity="0.16"/><stop offset="1" stop-color="#3fbf9c" stop-opacity="0.2"/>
    </linearGradient>
    <linearGradient id="fade40" x1="0" y1="0" x2="0" y2="1"><stop offset="0" stop-color="#1c507b" stop-opacity="0"/><stop offset="1" stop-color="#1c507b" stop-opacity="0.78"/></linearGradient>
  </defs>
  <rect width="900" height="700" fill="url(#bg40)"/>
  <rect width="900" height="700" fill="url(#glow40)"/>
  <g>
    <path d="M0 434 C 225 350, 360 518, 612 448 S 900 364, 900 364 V700 H0 Z" fill="url(#wave40)"/>
    <path d="M0 532 C 270 448, 450 616, 702 532 S 900 476.00000000000006, 900 476.00000000000006 V700 H0 Z" fill="url(#wave40)" opacity="0.8"/>
  </g>
  <g opacity="0.5">
    <rect x="108" y="168" width="270" height="238.00000000000003" rx="18" fill="#ffffff" opacity="0.7"/>
    <rect x="432" y="112" width="198" height="182" rx="16" fill="#ffffff" opacity="0.5"/>
    <rect x="144" y="210" width="198" height="6" rx="3" fill="#2a7fb6" opacity="0.4"/>
    <rect x="144" y="252" width="144" height="6" rx="3" fill="#2a7fb6" opacity="0.25"/>
  </g>
  <circle cx="590" cy="269" r="6" fill="none" stroke="#2a7fb6" stroke-opacity="0.25" stroke-width="1.5"/><circle cx="533" cy="370" r="12" fill="none" stroke="#2a7fb6" stroke-opacity="0.25" stroke-width="1.5"/><circle cx="706" cy="265" r="10" fill="none" stroke="#2a7fb6" stroke-opacity="0.25" stroke-width="1.5"/><circle cx="720" cy="124" r="14" fill="none" stroke="#2a7fb6" stroke-opacity="0.25" stroke-width="1.5"/><circle cx="202" cy="34" r="16" fill="none" stroke="#2a7fb6" stroke-opacity="0.25" stroke-width="1.5"/><circle cx="396" cy="343" r="16" fill="none" stroke="#2a7fb6" stroke-opacity="0.25" stroke-width="1.5"/><circle cx="346" cy="386" r="8" fill="none" stroke="#2a7fb6" stroke-opacity="0.25" stroke-width="1.5"/>
  <path d="M720 127 q 2.6 10.4 13 13 q -10.4 2.6 -13 13 q -2.6 -10.4 -13 -13 q 10.4 -2.6 13 -13 Z" fill="#3fbf9c" opacity="0.7"/>
  <g>
    <rect x="0" y="489.99999999999994" width="900" height="210" fill="url(#fade40)"/>
    <rect x="36" y="608" width="26" height="3" rx="1.5" fill="#71d8ba"/>
    <text x="36" y="656" font-family="Georgia, serif" font-size="48" font-weight="600" fill="#ffffff">Reception</text>
    <text x="36" y="682" font-family="Arial, sans-serif" font-size="21" letter-spacing="3" fill="#d2f5e9">CALM FROM THE START</text>
  </g>
</svg>
